<svg id="Capa_1" enable-background="new 0 0 512 512" height="512" viewBox="0 0 512 512" fill="#FFFFFF" width="512" xmlns="http://www.w3.org/2000/svg">
	<g>
		<path d="m437 0h-362c-24.813 0-45 20.187-45 45v422c0 24.813 20.187 45 45 45h362c24.813 0 45-20.187 45-45v-422c0-24.813-20.187-45-45-45zm15 467c0 8.271-6.729 15-15 15h-362c-8.271 0-15-6.729-15-15v-422c0-8.271 6.729-15 15-15h362c8.271 0 15 6.729 15 15z" />
		<path d="m345.95 181.05c8.284 0 15-6.716 15-15s-6.716-15-15-15h-74.95v-30.062h45.9c8.284 0 15-6.716 15-15s-6.716-15-15-15h-45.9v-14.988c0-8.284-6.716-15-15-15s-15 6.716-15 15v14.988h-44.95c-8.284 0-15 6.716-15 15s6.716 15 15 15h44.95v30.062h-74.1c-8.284 0-15 6.716-15 15s6.716 15 15 15h74.1v29.95h-59.575c-8.284 0-15 6.716-15 15s6.716 15 15 15h59.575v45.187l-4.844-4.844c-28.158-28.161-76.816-8.16-76.816 31.816 0 21.182 14.719 33.122 15.272 33.915l-18.318 18.318c-2.813 2.813-4.394 6.628-4.394 10.606v53.923c0 8.284 6.716 15 15 15s15-6.716 15-15v-47.71l13.925-13.925 18.318 18.318c2.813 2.813 6.628 4.394 10.606 4.394h62.4c3.979 0 7.794-1.58 10.606-4.394l18.793-18.794 14.4 14.4v53.79c0 8.284 6.716 15 15 15s15-6.716 15-15v-60c0-3.979-1.58-7.794-4.394-10.606l-18.791-18.794c.815-1.163 15.468-12.387 15.468-34.1 0-12.023-4.685-23.324-13.185-31.816-17.545-17.548-46.096-17.546-63.643 0l-5.403 5.403v-45.087h60.85c8.284 0 15-6.716 15-15s-6.716-15-15-15h-60.85v-29.95zm-48.334 120.847c9.406-9.409 25.614-2.698 25.614 10.603 0 6.827-4.321 10.489-4.397 10.604l-37.895 37.896h-49.975l-37.227-37.227c-5.854-5.854-5.879-15.338 0-21.217 5.848-5.846 15.359-5.846 21.207 0l30.4 30.399c5.857 5.857 15.355 5.857 21.213 0z" />
	</g>
</svg>
